<?xml version="1.0" encoding="UTF-8"?>
<svg width="650px" height="656px" viewBox="0 0 650 656" version="1.1" xmlns="http://www.w3.org/2000/svg" xmlns:xlink="http://www.w3.org/1999/xlink">
    <!-- Generator: Sketch 42 (36781) - http://www.bohemiancoding.com/sketch -->
    <title>okf</title>
    <desc>Created with Sketch.</desc>
    <defs></defs>
    <g id="Page-1" stroke="none" stroke-width="1" fill="none" fill-rule="evenodd">
        <g id="okf" fill-rule="nonzero" fill="#000000">
            <g id="Layer_1">
                <rect id="Rectangle-path" transform="translate(533.784138, 94.280087) rotate(-143.236675) translate(-533.784138, -94.280087) " x="523.27883" y="7.31167571" width="21.0106161" height="173.936822"></rect>
                <rect id="Rectangle-path" transform="translate(467.781679, 106.306224) rotate(-153.519505) translate(-467.781679, -106.306224) " x="457.274017" y="64.411578" width="21.0153238" height="83.7892912"></rect>
                <rect id="Rectangle-path" transform="translate(431.741241, 66.568979) rotate(-163.805114) translate(-431.741241, -66.568979) " x="421.231944" y="0.703753729" width="21.0185933" height="131.730451"></rect>
                <polygon id="Shape" points="386.174 123.535 365.269 121.372 373.88 38.057 394.792 40.222"></polygon>
                <polygon id="Shape" points="326.876 122.726 319.705 29.146 340.658 27.544 347.83 121.122"></polygon>
                <polygon id="Shape" points="289.347 130.911 273.078 68.771 293.407 63.448 309.665 125.589"></polygon>
                <rect id="Rectangle-path" transform="translate(254.310094, 121.719220) rotate(-114.955625) translate(-254.310094, -121.719220) " x="232.781421" y="111.217623" width="43.0573459" height="21.0031931"></rect>
                <polygon id="Shape" points="221.613 166.528 211.875 152.734 229.04 140.612 238.771 154.407"></polygon>
                <polygon id="Shape" points="193.593 192.811 144.313 144.43 159.031 129.431 208.313 177.81"></polygon>
                <polygon id="Shape" points="170.712 223.668 94.461 171.38 106.27 154.002 182.521 206.29"></polygon>
                <polygon id="Shape" points="153.712 258.113 105.694 236.831 114.21 217.623 162.231 238.907"></polygon>
                <polygon id="Shape" points="0.915 260.59 143.145 295.049 148.089 274.627 5.865 240.172"></polygon>
                <rect id="Rectangle-path" transform="translate(86.902305, 319.691092) rotate(-176.669204) translate(-86.902305, -319.691092) " x="33.7583767" y="309.182205" width="106.287857" height="21.0177741"></rect>
                <rect id="Rectangle-path" transform="translate(89.710831, 367.396586) rotate(-96.943802) translate(-89.710831, -367.396586) " x="79.205963" y="315.589771" width="21.0097364" height="103.613631"></rect>
                <rect id="Rectangle-path" transform="translate(137.661243, 402.235448) rotate(-107.240893) translate(-137.661243, -402.235448) " x="127.155381" y="390.190033" width="21.0117246" height="24.0908307"></rect>
                <rect id="Rectangle-path" transform="translate(125.071308, 454.263765) rotate(-117.515708) translate(-125.071308, -454.263765) " x="114.564121" y="410.678989" width="21.0143742" height="87.169552"></rect>
                <rect id="Rectangle-path" transform="translate(147.302747, 495.255364) rotate(-127.806140) translate(-147.302747, -495.255364) " x="136.797605" y="448.266229" width="21.0102837" height="93.9782692"></rect>
                <rect id="Rectangle-path" transform="translate(180.001990, 528.651257) rotate(-138.100947) translate(-180.001990, -528.651257) " x="169.497809" y="482.851147" width="21.0083627" height="91.6002212"></rect>
                <rect id="Rectangle-path" transform="translate(230.198685, 535.535396) rotate(-148.385741) translate(-230.198685, -535.535396) " x="219.690642" y="514.391309" width="21.0160862" height="42.2881734"></rect>
                <polygon id="Shape" points="255.483 615.164 235.911 607.519 265.855 530.831 285.427 538.477"></polygon>
                <rect id="Rectangle-path" transform="translate(305.250422, 582.453597) rotate(-168.954122) translate(-305.250422, -582.453597) " x="294.744144" y="544.676099" width="21.0125548" height="75.554995"></rect>
                <polygon id="Shape" points="360.456 602.026 339.445 601.745 340.143 549.202 361.153 549.477"></polygon>
                <polygon id="Shape" points="395.361 648.377 378.547 548.165 399.273 544.685 416.084 644.896"></polygon>
                <rect id="Rectangle-path" transform="translate(436.469499, 565.628034) rotate(-109.810305) translate(-436.469499, -565.628034) " x="405.777646" y="555.124756" width="61.3837063" height="21.0065573"></rect>
                <polygon id="Shape" points="451.742 525.832 527.953 655.815 546.137 645.273 469.921 515.297"></polygon>
                <polygon id="Shape" points="496.201 517.626 484.587 505.705 499.771 491.176 511.39 503.095"></polygon>
                <polygon id="Shape" points="564.805 522.131 512.415 479.203 525.737 462.949 578.128 505.875"></polygon>
                <polygon id="Shape" points="589.066 478.247 535.56 448.531 545.756 430.161 599.269 459.873"></polygon>
                <polygon id="Shape" points="578.69 422.999 552.841 414.219 559.599 394.32 585.44 403.098"></polygon>
                <rect id="Rectangle-path" transform="translate(605.751117, 373.030815) rotate(-171.523912) translate(-605.751117, -373.030815) " x="564.812684" y="362.524575" width="81.8768655" height="21.0124788"></rect>
                <polygon id="Shape" points="567.856 339.18 567.188 318.177 619.152 316.535 619.822 337.543"></polygon>
                <rect id="Rectangle-path" transform="translate(594.990803, 283.691488) rotate(-102.098759) translate(-594.990803, -283.691488) " x="584.483672" y="250.833577" width="21.0142627" height="65.7158214"></rect>
                <polygon id="Shape" points="555.549 263.647 547.546 244.221 589 227.147 596.997 246.569"></polygon>
                <polygon id="Shape" points="539.502 228.746 528.163 211.053 637.887 140.689 649.232 158.381"></polygon>
                <polygon id="Shape" points="517.484 197.262 503.166 181.89 519.743 166.449 534.054 181.824"></polygon>
                <g id="Group" transform="translate(220.000000, 203.000000)">
                    <path d="M117.427,116.361 C115.746,114.425 113.691,112.937 111.259,111.896 C108.826,110.857 106.058,110.336 102.954,110.336 L92.106,110.336 L92.106,155.313 L102.954,155.313 C106.057,155.313 108.826,154.792 111.259,153.752 C113.691,152.713 115.746,151.225 117.427,149.288 C119.108,147.351 120.395,144.992 121.29,142.208 C122.185,139.424 122.635,136.288 122.635,132.8 C122.635,129.344 122.186,126.224 121.29,123.441 C120.395,120.657 119.106,118.298 117.427,116.361 Z" id="Shape"></path>
                    <path d="M265.696,136.529 L265.224,121.133 L218.551,122.56 L264.219,112.828 L261.008,97.763 L215.318,107.5 L258.533,89.766 L252.684,75.516 L209.509,93.234 L248.83,68.098 L240.533,55.119 L201.175,80.278 L235.41,48.498 L224.931,37.209 L190.701,68.985 L218.709,31.614 L206.383,22.378 L178.376,59.749 L199.263,17.981 L185.489,11.092 L164.599,52.864 L177.7,8.035 L162.915,3.715 L149.815,48.546 L154.706,2.102 L139.388,0.489 L134.326,48.573 L130.552,0.371 L115.198,1.574 L118.842,48.117 L106.954,2.974 L92.058,6.896 L103.953,52.063 L84.19,9.745 L70.235,16.263 L89.994,58.572 L63,20.467 L50.432,29.369 L77.437,67.492 L44.063,34.803 L33.286,45.807 L66.639,78.476 L27.991,52.28 L19.348,65.03 L58.013,91.236 L15.292,72.352 L9.065,86.44 L51.784,105.323 L6.379,94.369 L2.768,109.342 L48.16,120.293 L1.547,117.617 L0.664,132.994 L47.299,135.671 L0.936,141.359 L2.811,156.646 L49.184,150.957 L4.572,164.831 L9.146,179.538 L53.733,165.672 L12.337,187.274 L19.462,200.929 L60.859,179.327 L23.981,207.969 L33.428,220.133 L70.309,191.488 L39.131,226.255 L50.598,236.538 L81.768,201.778 L57.298,241.544 L70.415,249.616 L94.897,209.831 L77.91,253.343 L92.258,258.946 L109.245,215.432 L100.295,261.278 L115.412,264.228 L124.358,218.403 L123.736,265.091 L139.135,265.296 L139.758,218.576 L147.483,264.658 L162.673,262.111 L154.955,216.065 L170.764,259.992 L185.256,254.775 L169.442,210.833 L192.844,251.248 L206.174,243.529 L182.778,203.126 L213.008,238.709 L224.746,228.736 L194.506,193.141 L230.608,222.761 L240.378,210.854 L204.253,181.213 L245.089,203.933 L252.577,190.474 L211.779,167.776 L255.97,182.829 L260.938,168.249 L216.722,153.188 L262.917,160.116 L265.202,144.884 L218.992,137.953 L265.696,136.529 Z M136.626,146.793 C134.882,151.064 132.427,154.761 129.259,157.881 C126.091,161.001 122.276,163.434 117.811,165.177 C113.347,166.922 108.395,167.793 102.956,167.793 L75.788,167.793 L75.788,97.857 L102.956,97.857 C108.395,97.857 113.349,98.737 117.811,100.497 C122.276,102.257 126.091,104.689 129.259,107.793 C132.427,110.897 134.882,114.585 136.626,118.857 C138.37,123.129 139.242,127.777 139.242,132.8 C139.242,137.857 138.37,142.521 136.626,146.793 Z M192.042,110.337 L163.338,110.337 L163.338,126.657 L185.322,126.657 L185.322,138.657 L163.338,138.657 L163.338,155.312 L192.042,155.312 L192.042,167.791 L147.018,167.791 L147.018,97.855 L192.042,97.855 L192.042,110.337 Z" id="Shape"></path>
                </g>
            </g>
        </g>
    </g>
</svg>